<svg xmlns="http://www.w3.org/2000/svg" width="400" height="400" viewBox="0 0 400 400" version="1.1">
	<path d="M 88.667 11.667 C 87.599 12.735, 87.898 25.534, 89.112 30.736 C 92.925 47.065, 98.468 61.280, 106.373 75 C 107.482 76.925, 109.326 80.381, 110.471 82.681 C 111.616 84.980, 113.901 88.355, 115.550 90.181 C 117.198 92.006, 119.629 95.075, 120.951 97 C 124.159 101.670, 144.929 122.864, 158.050 134.857 C 171.501 147.153, 172.158 147.710, 186.500 159.008 C 193.100 164.207, 199.098 169.035, 199.828 169.737 C 200.558 170.439, 202.059 171.497, 203.164 172.088 C 204.268 172.679, 204.983 173.350, 204.753 173.580 C 204.208 174.126, 196.363 170.125, 192.340 167.250 C 190.608 166.012, 188.698 165, 188.096 165 C 187.493 165, 187 164.550, 187 164 C 187 163.450, 186.529 163, 185.953 163 C 182.819 163, 151.407 140.711, 137.500 128.621 C 124.408 117.239, 110.528 101.268, 105 91.225 C 104.175 89.726, 102.129 86.250, 100.453 83.500 C 96.485 76.987, 92.307 68.294, 90.010 61.772 C 89 58.904, 87.685 56.395, 87.087 56.196 C 85.616 55.705, 85.628 81.363, 87.101 87.736 C 89.721 99.067, 90.138 100.440, 94.009 110.500 C 97.524 119.632, 109.776 140.361, 115.250 146.435 C 117.540 148.976, 117.499 150.472, 115.185 148.807 C 113.166 147.353, 100.324 132.839, 97.768 129.123 L 96.133 126.745 94.729 130.123 C 92.973 134.345, 91.618 145.182, 91.618 155 C 91.618 164.166, 92.990 175.876, 94.148 176.591 C 94.616 176.881, 95 178.415, 95 180 C 95 181.585, 95.450 183.160, 96 183.500 C 96.550 183.840, 97 184.734, 97 185.487 C 97 187.188, 103.615 198.453, 106.990 202.500 C 114.364 211.343, 128.392 222.335, 135.250 224.644 C 136.213 224.968, 137 225.578, 137 226 C 137 226.422, 137.787 227.025, 138.750 227.341 C 139.713 227.656, 142.300 229.030, 144.500 230.393 C 146.700 231.757, 150.300 233.851, 152.500 235.048 C 163.855 241.224, 167.763 243.468, 170.466 245.364 L 173.433 247.444 169.966 248.293 C 162.478 250.127, 158.459 251.384, 157.550 252.174 C 157.027 252.628, 155.920 253, 155.088 253 C 154.256 253, 151.646 254.894, 149.288 257.208 L 145 261.416 145 315.840 C 145 369.136, 145.043 370.333, 147.071 373.614 C 149.389 377.365, 153.983 381, 156.404 381 C 157.282 381, 158 381.403, 158 381.895 C 158 383.404, 165.840 384.238, 180.500 384.289 C 199.206 384.353, 214.118 381.884, 230.500 376.010 C 240.052 372.585, 251.697 367.153, 255 364.581 C 255.825 363.939, 257.792 362.765, 259.372 361.973 C 262.862 360.221, 275.176 349.748, 280.038 344.395 C 285.780 338.074, 292.415 328.046, 296.337 319.762 C 298.351 315.506, 300 311.563, 300 310.999 C 300 310.434, 300.397 309.191, 300.882 308.236 C 302.522 305.008, 304 297.002, 304 291.352 C 304 284.862, 305.576 278.649, 308.189 274.835 C 310.181 271.928, 322.055 264, 324.416 264 C 325.222 264, 326.160 263.550, 326.500 263 C 326.840 262.450, 328.126 262, 329.359 262 C 330.592 262, 332.028 261.582, 332.550 261.071 C 333.072 260.561, 335.075 259.998, 337 259.821 C 342.854 259.284, 341.609 256.412, 332.280 248.934 C 324.080 242.361, 320.841 240.439, 309.500 235.415 C 304.313 233.117, 302.077 232.745, 293 232.667 C 283.176 232.582, 282.148 232.767, 277.027 235.538 C 267.933 240.459, 264 249.396, 264 265.136 C 264 270.653, 263.646 271.984, 261.686 273.826 C 256.824 278.393, 256.634 277.621, 257.303 256.007 C 257.644 245.011, 258.401 235.120, 258.985 234.028 C 260.444 231.302, 260.512 165.825, 259.059 163.110 C 258.477 162.022, 258 159.852, 258 158.288 C 258 156.724, 257.325 154.481, 256.500 153.304 C 255.675 152.126, 255.246 150.523, 255.546 149.741 C 255.846 148.960, 255.396 147.743, 254.546 147.038 C 253.695 146.332, 253 144.712, 253 143.437 C 253 142.161, 252.550 140.840, 252 140.500 C 251.450 140.160, 251 139.046, 251 138.024 C 251 137.003, 250.662 136.017, 250.250 135.833 C 249.838 135.650, 248.302 133.124, 246.838 130.219 C 245.374 127.315, 243.124 123.522, 241.838 121.792 C 238.235 116.943, 227.794 106, 226.770 106 C 226.268 106, 225.194 105.337, 224.384 104.527 C 222.829 102.972, 188.415 79.274, 185.006 77.411 C 183.910 76.812, 182.188 75.575, 181.178 74.661 C 180.169 73.748, 178.928 72.994, 178.421 72.987 C 177.915 72.979, 176.375 72.079, 175 70.987 C 173.625 69.894, 163.500 62.856, 152.500 55.347 C 141.500 47.839, 132.350 41.314, 132.167 40.847 C 131.983 40.381, 131.281 40, 130.605 40 C 129.930 40, 128.505 39.194, 127.439 38.210 C 126.372 37.225, 120.775 33.075, 115 28.988 C 109.225 24.901, 101.350 19.190, 97.500 16.297 C 90.194 10.809, 89.755 10.578, 88.667 11.667" stroke="none" fill="black" fill-rule="evenodd"/>
</svg>